<?xml version="1.0" encoding="UTF-8" standalone="no"?>
<!DOCTYPE svg PUBLIC "-//W3C//DTD SVG 1.1//EN" "http://www.w3.org/Graphics/SVG/1.1/DTD/svg11.dtd">
<svg xmlns="http://www.w3.org/2000/svg" version="1.1" viewBox="0.00 0.00 1424.00 196.00">
<g stroke-width="2.00" fill="none" stroke-linecap="butt">
<path stroke="#808080" vector-effect="non-scaling-stroke" d="
  M 1032.01 42.75
  C 1032.20 30.17 1030.50 13.58 1013.76 12.80
  C 998.39 12.09 972.30 17.24 966.84 34.28
  A 1.63 1.62 -44.7 0 0 966.83 35.26
  C 969.40 43.85 977.15 42.58 982.69 47.78
  C 984.35 49.34 984.74 53.80 984.78 56.01
  Q 985.64 100.63 984.48 145.25
  Q 984.34 150.85 982.65 153.33
  C 980.72 156.16 971.08 160.89 973.87 167.20
  Q 977.57 175.59 987.77 176.87
  Q 1009.46 179.58 1029.03 176.07
  Q 1033.33 175.30 1035.69 173.74
  C 1038.90 171.61 1042.44 167.45 1041.81 163.36
  C 1041.19 159.30 1036.54 155.78 1033.43 153.36
  Q 1033.04 153.06 1032.89 152.58
  Q 1031.30 147.35 1031.27 144.00
  Q 1031.03 108.83 1032.01 42.75"
/>
<path stroke="#808080" vector-effect="non-scaling-stroke" d="
  M 1111.01 110.09
  Q 1109.73 107.98 1109.76 106.00
  Q 1110.15 76.27 1110.43 46.55
  C 1110.50 38.20 1110.71 33.66 1109.08 27.43
  C 1105.16 12.51 1093.79 11.62 1080.10 13.18
  C 1069.55 14.38 1051.98 19.81 1046.58 30.10
  Q 1043.31 36.34 1048.49 41.07
  C 1051.16 43.51 1056.41 43.57 1059.30 46.41
  Q 1062.45 49.49 1062.58 53.75
  Q 1063.62 90.07 1062.59 145.56
  Q 1062.50 150.67 1060.16 153.67
  C 1056.70 158.12 1049.22 161.10 1052.01 168.30
  C 1054.43 174.54 1063.20 177.06 1069.51 177.39
  Q 1086.32 178.27 1094.25 177.87
  C 1102.59 177.46 1115.63 176.15 1119.02 166.99
  C 1121.69 159.76 1112.69 156.40 1110.98 150.04
  C 1109.68 145.18 1107.62 126.19 1117.74 128.29
  C 1124.97 129.80 1131.30 140.73 1133.38 146.73
  C 1135.60 153.12 1128.08 156.85 1126.72 161.85
  C 1125.07 167.94 1129.35 173.88 1135.03 175.69
  Q 1139.84 177.21 1146.50 177.53
  C 1159.69 178.16 1173.81 178.35 1186.75 175.33
  C 1192.62 173.97 1202.89 167.06 1199.45 159.81
  Q 1198.00 156.77 1194.71 153.79
  Q 1175.26 136.14 1161.49 113.75
  Q 1159.27 110.14 1158.62 106.57
  A 3.23 3.23 0.0 0 1 1159.31 103.93
  C 1165.79 96.08 1176.54 90.24 1185.14 84.80
  C 1188.94 82.40 1197.02 75.64 1195.69 70.56
  C 1193.05 60.44 1179.01 59.99 1170.77 59.55
  Q 1153.61 58.63 1136.88 62.59
  C 1130.97 63.99 1127.55 66.34 1125.07 71.63
  C 1120.51 81.40 1134.15 83.41 1134.76 91.51
  C 1135.39 99.98 1118.97 110.48 1111.83 110.54
  Q 1111.29 110.55 1111.01 110.09"
/>
<path stroke="#808080" vector-effect="non-scaling-stroke" d="
  M 802.62 142.13
  C 798.19 129.50 798.18 112.75 799.40 99.54
  A 1.07 1.07 0.0 0 1 799.89 98.74
  Q 801.10 97.97 802.64 97.91
  Q 811.19 97.59 819.75 97.58
  C 826.25 97.56 829.78 84.09 830.69 78.99
  C 831.42 74.90 831.14 63.13 824.75 63.11
  Q 812.50 63.08 800.13 62.89
  A 1.06 1.06 0.0 0 1 799.09 61.85
  Q 798.89 47.12 798.71 32.25
  Q 798.68 29.86 797.49 27.80
  A 1.44 1.37 -4.8 0 0 796.73 27.19
  C 787.97 24.33 770.17 35.55 762.81 40.30
  C 755.13 45.25 757.32 54.21 756.46 61.79
  A 2.34 2.33 2.0 0 1 754.23 63.86
  C 750.35 64.01 744.48 63.59 741.79 66.81
  C 738.06 71.27 737.33 78.80 737.26 84.57
  C 737.18 91.07 740.17 97.49 747.49 97.74
  Q 750.57 97.85 752.72 97.77
  A 1.70 1.69 89.0 0 1 754.49 99.49
  Q 754.32 114.67 754.22 129.00
  Q 754.11 144.15 754.44 146.75
  C 755.87 158.16 761.58 170.79 772.87 175.17
  C 792.76 182.90 821.03 172.63 831.14 153.53
  C 833.59 148.88 833.46 144.34 828.91 141.35
  C 821.19 136.28 819.17 142.80 813.11 144.76
  C 810.27 145.68 803.91 145.81 802.62 142.13"
/>
<path stroke="#808080" vector-effect="non-scaling-stroke" d="
  M 90.93 64.29
  A 1.95 1.94 -61.4 0 1 89.05 64.85
  C 76.13 61.67 63.06 58.79 49.75 60.26
  C 32.24 62.21 17.17 72.46 14.02 90.57
  C 11.57 104.63 17.90 118.51 30.52 125.25
  Q 40.78 130.73 58.69 137.33
  C 63.65 139.15 66.96 141.33 69.84 145.30
  C 71.54 147.64 70.69 149.14 68.90 150.91
  C 65.94 153.82 63.42 155.17 59.13 154.01
  Q 52.84 152.31 48.01 147.75
  C 40.72 140.87 33.86 133.26 24.15 129.13
  C 21.52 128.00 20.38 128.70 18.50 130.48
  C 11.76 136.85 11.51 142.94 12.81 152.15
  C 14.24 162.37 21.14 176.98 33.01 177.93
  A 0.90 0.84 32.9 0 0 33.46 177.85
  L 42.63 173.66
  A 3.01 3.00 -49.6 0 1 44.71 173.49
  C 65.55 179.30 90.09 182.67 108.48 168.01
  Q 123.38 156.13 122.86 138.29
  C 122.21 116.07 105.30 107.14 86.73 101.39
  C 80.83 99.56 67.56 95.29 65.91 91.53
  Q 64.77 88.96 65.44 87.65
  Q 70.20 78.34 79.27 83.71
  Q 86.42 87.94 94.92 95.32
  C 101.70 101.21 112.68 107.41 118.52 97.76
  C 123.75 89.15 118.71 74.53 113.62 66.87
  C 110.77 62.58 105.29 57.40 99.75 59.02
  Q 94.39 60.60 90.93 64.29"
/>
<path stroke="#808080" vector-effect="non-scaling-stroke" d="
  M 547.06 84.93
  Q 546.61 84.78 546.21 84.06
  Q 545.97 83.61 545.88 82.91
  C 544.78 74.40 543.36 66.49 535.63 62.34
  C 524.45 56.32 506.49 62.68 497.16 69.79
  C 492.10 73.65 480.12 85.44 485.73 91.98
  C 489.29 96.13 496.00 95.06 498.74 100.76
  Q 499.55 102.45 499.66 106.35
  Q 500.21 126.38 499.25 146.39
  C 499.00 151.63 496.49 153.88 492.50 157.38
  C 488.26 161.11 486.42 165.74 490.16 170.63
  C 494.03 175.71 499.49 176.12 506.61 176.80
  Q 526.74 178.72 546.78 175.59
  C 554.22 174.43 561.15 169.41 559.62 160.85
  C 558.56 154.92 550.38 152.99 548.06 147.56
  Q 547.14 145.41 546.94 143.01
  Q 545.61 126.98 547.30 111.01
  C 547.64 107.74 548.94 104.04 550.65 101.55
  Q 552.16 99.34 553.75 101.48
  C 560.39 110.39 565.25 119.89 578.25 119.95
  C 598.53 120.05 605.75 99.45 603.11 82.64
  C 601.00 69.23 592.91 58.85 578.58 58.71
  C 566.96 58.59 557.65 64.53 552.72 75.00
  Q 550.53 79.67 548.58 84.25
  Q 548.13 85.30 547.06 84.93"
/>
<path stroke="#808080" vector-effect="non-scaling-stroke" d="
  M 190.92 84.52
  C 189.69 72.82 185.10 59.68 170.74 60.06
  C 154.51 60.49 133.06 70.33 129.01 87.92
  Q 128.90 88.40 129.08 88.86
  C 130.37 92.03 131.89 93.43 135.31 94.78
  C 140.37 96.77 144.18 98.13 144.24 104.50
  Q 144.42 124.75 144.33 145.00
  C 144.30 151.41 138.36 156.27 134.62 160.82
  Q 132.25 163.69 132.77 165.50
  C 134.75 172.43 139.21 175.09 146.40 176.30
  Q 163.01 179.10 177.35 177.36
  C 186.30 176.27 193.27 174.75 197.94 168.44
  C 202.07 162.86 197.25 158.49 193.53 154.68
  C 191.47 152.57 190.76 148.03 190.62 144.61
  Q 189.88 125.94 190.60 107.25
  C 190.71 104.53 190.73 100.86 192.31 98.68
  C 194.96 95.01 201.29 94.75 205.25 95.85
  C 212.10 97.75 214.68 105.59 214.82 111.87
  Q 215.39 136.44 214.95 146.75
  Q 214.66 153.39 209.98 158.22
  Q 207.91 160.37 207.35 161.94
  C 199.84 183.15 249.99 177.73 258.28 176.15
  C 267.09 174.48 274.24 167.43 269.13 158.29
  C 266.69 153.93 261.97 150.96 261.78 144.51
  Q 261.51 135.04 261.98 103.00
  C 262.09 94.98 272.54 94.60 277.95 96.55
  C 284.19 98.81 286.04 106.82 286.48 112.75
  Q 287.06 120.68 286.75 135.58
  C 286.52 146.40 287.03 152.33 280.78 159.26
  C 278.96 161.28 277.41 163.93 277.99 166.30
  C 279.60 172.79 285.48 175.45 292.05 176.49
  Q 311.92 179.63 331.65 175.47
  C 335.80 174.60 337.87 172.86 340.71 169.95
  Q 345.47 165.09 341.31 159.94
  Q 337.31 155.00 333.70 149.73
  A 1.64 1.63 27.0 0 1 333.40 148.82
  C 332.94 132.30 332.67 115.79 332.25 99.26
  Q 332.03 90.98 329.96 83.05
  C 325.36 65.45 310.53 56.40 293.09 59.94
  C 279.03 62.80 270.97 72.90 263.49 84.38
  A 1.33 1.33 0.0 0 1 261.15 84.18
  C 254.59 68.98 247.94 59.53 229.76 59.39
  C 211.01 59.24 201.70 70.37 192.82 84.95
  A 1.03 1.03 0.0 0 1 190.92 84.52"
/>
<path stroke="#808080" vector-effect="non-scaling-stroke" d="
  M 453.86 69.42
  C 436.13 58.08 412.38 57.00 392.49 62.70
  C 370.87 68.88 356.07 84.77 351.14 106.36
  Q 347.30 123.20 352.23 139.25
  C 359.74 163.71 380.83 176.37 405.50 178.14
  C 440.42 180.65 473.67 166.64 478.77 128.22
  C 481.87 104.85 473.80 82.16 453.86 69.42"
/>
<path stroke="#808080" vector-effect="non-scaling-stroke" d="
  M 631.40 166.41
  C 646.34 177.54 668.07 180.48 686.12 177.39
  C 705.25 174.11 719.09 164.41 727.07 146.33
  Q 732.18 134.76 721.58 130.56
  C 719.40 129.69 717.77 130.11 716.14 131.63
  Q 697.40 149.14 673.69 141.46
  C 666.23 139.05 661.90 134.84 660.60 127.22
  A 1.77 1.76 81.1 0 1 662.08 125.18
  Q 664.01 124.90 666.00 124.87
  Q 683.87 124.67 701.75 124.83
  Q 709.60 124.91 717.27 123.27
  C 726.59 121.27 731.51 112.20 730.72 103.22
  Q 728.72 80.37 710.93 68.25
  C 692.40 55.64 661.78 57.33 642.51 67.44
  Q 618.91 79.82 612.40 106.50
  C 607.20 127.82 613.33 152.96 631.40 166.41"
/>
<path stroke="#808080" vector-effect="non-scaling-stroke" d="
  M 910.48 160.88
  Q 912.26 168.92 919.09 174.66
  Q 921.71 176.85 924.00 177.28
  C 937.40 179.80 957.44 176.71 965.12 163.79
  Q 967.73 159.40 964.98 155.29
  C 962.44 151.51 953.59 148.55 953.31 144.16
  C 952.35 128.76 953.27 112.47 953.28 103.01
  Q 953.29 93.71 949.82 85.13
  C 943.53 69.55 930.42 63.28 914.50 61.20
  C 893.48 58.46 870.56 61.68 853.00 74.23
  C 846.25 79.06 838.24 90.31 841.36 99.17
  Q 846.06 112.54 860.25 112.50
  C 866.93 112.48 874.86 109.76 878.37 103.60
  C 880.86 99.24 885.14 89.93 889.95 88.34
  Q 902.87 84.07 906.49 96.78
  C 908.61 104.21 899.67 109.67 894.15 111.60
  Q 891.99 112.35 887.27 112.97
  C 875.96 114.47 864.46 117.47 854.83 123.81
  C 843.73 131.11 839.06 145.44 843.04 157.98
  C 848.90 176.48 867.61 181.33 884.76 177.51
  C 895.08 175.20 901.58 167.58 908.36 160.30
  A 1.24 1.24 0.0 0 1 910.48 160.88"
/>
<path stroke="#4b4680" vector-effect="non-scaling-stroke" d="
  M 1379.73 24.69
  Q 1381.47 27.29 1386.32 32.94
  C 1415.35 66.76 1417.00 116.71 1387.93 151.41
  Q 1360.44 184.22 1317.50 185.28
  Q 1299.22 185.73 1240.40 185.04
  Q 1239.88 185.04 1239.59 185.46
  Q 1238.95 186.37 1239.47 188.01"
/>
<path stroke="#808080" vector-effect="non-scaling-stroke" d="
  M 1305.54 13.44
  Q 1300.01 13.91 1294.36 15.63
  Q 1265.55 24.40 1248.91 49.38
  C 1236.74 67.65 1231.47 91.88 1238.93 113.02"
/>
<path stroke="#4b4680" vector-effect="non-scaling-stroke" d="
  M 1238.93 113.02
  C 1242.70 124.33 1248.69 134.69 1250.80 146.41"
/>
<path stroke="#808080" vector-effect="non-scaling-stroke" d="
  M 1250.80 146.41
  Q 1249.31 160.69 1238.10 168.32
  Q 1236.74 169.24 1236.24 170.02
  Q 1235.06 171.87 1236.63 172.84"
/>
<path stroke="#4b4680" vector-effect="non-scaling-stroke" d="
  M 1236.63 172.84
  C 1241.69 173.94 1246.65 173.30 1250.88 173.30
  Q 1281.32 173.30 1311.74 173.30
  Q 1324.77 173.30 1331.66 172.04
  Q 1358.09 167.20 1376.20 147.20
  C 1398.45 122.63 1404.06 85.46 1387.69 55.55
  C 1376.49 35.09 1356.86 19.13 1333.83 14.51
  Q 1320.06 11.76 1305.54 13.44"
/>
<path stroke="#cac5ff" vector-effect="non-scaling-stroke" d="
  M 1236.63 172.84
  L 1241.22 171.87
  Q 1241.69 171.77 1242.01 171.42
  Q 1242.66 170.70 1244.34 169.30
  Q 1254.56 160.80 1252.02 147.03
  Q 1251.93 146.53 1251.42 146.48
  L 1250.80 146.41"
/>
<path stroke="#cac5ff" vector-effect="non-scaling-stroke" d="
  M 1238.93 113.02
  Q 1239.77 114.40 1240.66 114.32
  A 0.47 0.46 -13.9 0 0 1241.05 113.68
  Q 1239.11 108.96 1238.58 104.00
  C 1238.05 99.02 1239.36 92.18 1239.55 86.22
  Q 1239.65 83.11 1240.55 80.41
  C 1242.12 75.62 1243.67 70.47 1245.50 66.37
  C 1256.05 42.67 1277.75 24.40 1301.79 15.46
  Q 1302.64 15.15 1305.02 14.80
  A 0.74 0.74 0.0 0 0 1305.63 14.21
  Q 1305.70 13.84 1305.54 13.44"
/>
<path stroke="#808080" vector-effect="non-scaling-stroke" d="
  M 428.0828 143.5985
  A 27.50 16.89 61.9 0 0 430.0291 111.3846
  A 27.50 16.89 61.9 0 0 402.1772 95.0815
  A 27.50 16.89 61.9 0 0 400.2309 127.2954
  A 27.50 16.89 61.9 0 0 428.0828 143.5985"
/>
<path stroke="#808080" vector-effect="non-scaling-stroke" d="
  M 661.07 108.82
  L 679.92 108.17
  A 4.56 4.56 0.0 0 0 684.32 103.45
  L 684.25 101.51
  A 12.54 12.10 -2.0 0 0 671.29 89.86
  L 668.40 89.96
  A 12.54 12.10 -2.0 0 0 656.29 102.49
  L 656.35 104.43
  A 4.56 4.56 0.0 0 0 661.07 108.82"
/>
<path stroke="#808080" vector-effect="non-scaling-stroke" d="
  M 903.03 126.02
  C 899.33 127.76 894.28 129.40 891.71 131.93
  C 887.66 135.90 888.60 142.54 892.37 146.40
  C 896.66 150.78 903.58 149.36 906.48 144.28
  Q 911.41 135.65 906.50 125.92"
/>
<path stroke="#cac5ff" vector-effect="non-scaling-stroke" d="
  M 906.50 125.92
  Q 904.84 124.74 903.03 126.02"
/>
<path stroke="#4b4680" vector-effect="non-scaling-stroke" d="
  M 906.50 125.92
  L 903.03 126.02"
/>
</g>
<path fill="#010101" d="
  M 127.45 66.04
  C 133.73 61.95 140.05 56.79 146.29 53.99
  C 158.14 48.67 171.99 46.25 184.24 51.42
  C 188.27 53.13 191.42 56.19 194.56 59.24
  A 2.88 2.88 0.0 0 0 198.63 59.19
  C 202.80 54.88 207.63 52.29 213.68 50.45
  C 216.95 49.45 220.26 48.31 223.51 47.87
  C 237.88 45.93 252.15 50.47 261.98 61.79
  Q 264.27 64.42 266.80 61.48
  C 287.54 41.06 322.68 42.43 337.42 69.31
  C 340.21 74.39 341.80 81.03 343.60 86.92
  A 0.92 0.91 50.7 0 0 345.28 87.09
  C 353.19 72.52 364.84 61.62 379.93 55.15
  C 383.20 53.74 386.34 52.21 389.84 51.44
  C 395.24 50.25 401.03 48.74 406.10 48.10
  C 417.99 46.58 428.05 47.89 439.18 50.65
  Q 445.59 52.24 449.61 53.95
  Q 464.37 60.22 474.76 72.33
  A 1.97 1.96 47.5 0 0 477.63 72.46
  Q 480.94 69.20 484.34 65.87
  Q 496.26 54.20 513.49 49.98
  Q 527.17 46.62 539.36 51.30
  C 543.25 52.79 546.31 55.71 549.76 58.31
  Q 550.22 58.66 550.63 58.25
  Q 559.08 50.10 568.72 48.03
  Q 592.77 42.85 607.38 61.53
  C 609.87 64.71 611.40 68.89 613.15 72.64
  Q 614.40 75.30 616.58 73.32
  C 619.95 70.26 623.31 66.58 626.64 64.04
  Q 637.12 56.07 649.76 51.97
  Q 652.52 51.07 660.89 49.37
  C 684.01 44.68 709.28 48.82 726.30 65.84
  A 1.36 1.36 0.0 0 0 728.35 65.68
  C 732.34 60.26 734.82 56.36 741.80 53.88
  C 746.19 52.32 746.31 42.70 748.90 38.63
  C 754.81 29.35 765.79 24.66 776.21 19.70
  C 782.30 16.80 788.16 14.58 794.80 15.21
  C 814.18 17.02 810.85 34.49 810.68 48.74
  A 2.44 2.44 0.0 0 0 813.12 51.21
  C 819.05 51.20 825.92 50.47 831.09 52.90
  Q 839.41 56.81 841.66 66.09
  A 1.17 1.17 0.0 0 0 843.49 66.76
  Q 857.47 56.64 874.03 52.01
  Q 877.86 50.94 887.15 49.59
  C 900.42 47.66 913.27 48.45 926.27 51.58
  C 943.94 55.82 958.18 68.29 962.75 85.71
  Q 964.64 92.92 964.63 103.74
  Q 964.63 119.68 964.32 135.60
  C 964.23 140.00 967.22 142.05 971.07 143.22
  A 1.87 1.86 8.5 0 0 973.48 141.44
  L 973.57 57.56
  A 1.00 0.99 19.3 0 0 973.19 56.78
  C 969.95 54.22 965.57 52.44 962.95 50.15
  C 955.02 43.25 953.67 32.87 958.60 23.70
  C 963.18 15.18 972.24 10.21 981.04 6.59
  Q 983.44 5.61 989.66 4.07
  C 993.60 3.09 997.57 1.28 1001.25 0.75
  Q 1008.15 -0.23 1015.09 0.31
  C 1019.44 0.65 1022.55 2.49 1026.52 4.25
  C 1031.89 6.62 1035.02 9.80 1037.97 15.03
  C 1039.21 17.22 1041.44 16.92 1043.29 15.53
  Q 1050.15 10.37 1058.00 7.00
  C 1062.43 5.10 1068.80 3.97 1074.28 2.08
  C 1080.71 -0.14 1087.36 -0.15 1094.03 0.38
  Q 1096.78 0.60 1099.74 1.98
  C 1103.00 3.50 1106.54 4.60 1109.24 6.65
  C 1123.47 17.45 1122.92 37.38 1122.19 53.13
  A 1.69 1.68 24.4 0 0 1122.67 54.40
  C 1124.80 56.60 1127.65 53.71 1129.59 52.72
  Q 1131.15 51.93 1133.03 51.45
  C 1150.24 47.09 1170.11 45.57 1187.23 49.86
  Q 1194.95 51.80 1198.99 54.82
  C 1211.92 64.47 1208.54 83.30 1196.28 91.53
  Q 1185.63 98.69 1174.39 105.86
  A 3.71 3.70 -34.8 0 0 1173.42 111.22
  C 1182.01 122.58 1189.96 133.61 1200.84 142.98
  Q 1205.83 147.27 1207.58 149.98
  Q 1213.25 158.74 1210.70 168.82
  C 1207.51 181.41 1194.58 186.83 1183.01 188.33
  Q 1158.71 191.48 1134.60 187.57
  C 1130.66 186.94 1127.44 185.01 1123.84 183.47
  A 4.42 4.40 -46.2 0 0 1120.21 183.55
  C 1116.64 185.25 1113.07 187.08 1109.10 187.74
  Q 1089.44 190.97 1066.75 188.54
  Q 1054.88 187.26 1046.51 181.94
  A 0.83 0.82 -44.5 0 0 1045.64 181.94
  Q 1038.39 186.41 1035.65 186.95
  Q 1009.26 192.13 982.76 187.62
  Q 974.63 186.24 968.35 181.24
  A 1.89 1.89 0.0 0 0 966.27 181.06
  Q 945.05 192.78 922.02 188.41
  C 916.21 187.31 911.53 184.25 907.05 180.65
  Q 906.24 180.00 905.38 180.58
  Q 880.83 197.10 854.45 186.59
  C 846.20 183.30 840.25 178.01 835.29 170.88
  A 1.21 1.21 0.0 0 0 833.48 170.69
  C 828.62 175.24 823.11 179.68 817.25 182.64
  C 795.57 193.58 763.22 193.40 749.54 169.78
  C 747.03 165.45 745.49 160.05 743.92 155.01
  C 743.23 152.79 744.06 148.76 743.15 145.42
  Q 742.78 144.06 742.35 142.74
  A 0.83 0.83 0.0 0 0 740.75 142.80
  C 739.97 145.98 739.67 148.74 737.96 151.70
  C 736.50 154.23 735.25 157.12 733.89 159.35
  C 723.76 175.94 708.66 185.36 689.75 189.03
  Q 663.34 194.16 638.46 184.04
  C 619.20 176.20 605.71 160.03 601.20 139.66
  Q 599.91 133.83 599.21 127.76
  A 1.20 1.20 0.0 0 0 597.54 126.80
  C 592.72 128.92 587.09 131.51 582.05 132.06
  C 573.33 133.00 568.01 130.33 560.44 126.75
  A 1.09 1.09 0.0 0 0 558.90 127.55
  C 558.17 131.80 557.46 141.84 561.43 144.61
  Q 566.21 147.96 569.20 152.85
  C 572.49 158.24 572.30 169.23 569.39 174.53
  C 565.28 182.04 556.41 186.22 548.25 187.44
  Q 526.90 190.66 505.48 188.52
  C 489.38 186.92 479.43 183.07 475.88 166.73
  A 1.18 1.17 57.2 0 0 473.79 166.27
  C 466.09 176.66 452.96 183.48 441.26 186.81
  Q 413.38 194.75 385.53 186.61
  Q 375.65 183.72 367.11 178.11
  C 363.65 175.83 360.05 172.53 356.51 169.68
  A 1.53 1.53 0.0 0 0 354.10 170.40
  C 350.14 182.54 340.80 186.37 328.28 188.29
  Q 307.34 191.50 286.38 187.41
  C 282.38 186.62 278.63 184.28 274.42 183.09
  A 1.50 1.50 0.0 0 0 273.51 183.12
  C 269.68 184.49 266.18 186.59 262.35 187.35
  Q 239.64 191.81 216.90 187.75
  C 211.94 186.87 207.41 184.81 202.95 182.64
  A 2.17 2.14 44.7 0 0 201.08 182.64
  C 196.65 184.80 192.30 186.83 187.41 187.72
  Q 170.70 190.76 153.90 189.08
  C 139.31 187.61 129.17 186.05 122.48 173.21
  Q 122.21 172.70 121.75 173.04
  C 114.05 178.75 108.84 183.61 98.48 186.94
  Q 82.61 192.05 66.00 190.23
  Q 62.15 189.81 48.74 186.83
  C 44.00 185.77 41.62 188.00 37.38 188.89
  C 21.79 192.16 8.90 179.62 4.46 166.24
  C 2.95 161.67 1.07 157.31 0.61 153.12
  C -0.13 146.47 -0.55 138.74 2.50 132.59
  Q 4.86 127.83 8.17 123.65
  C 9.02 122.58 8.32 120.16 7.56 118.80
  Q -3.45 99.15 5.56 77.91
  C 10.17 67.07 18.84 59.17 29.30 54.11
  C 35.47 51.12 46.35 48.37 52.49 48.02
  C 63.98 47.36 72.17 49.38 82.25 51.41
  C 86.51 52.27 88.42 51.55 92.62 49.41
  C 106.77 42.18 120.89 52.97 126.52 65.77
  Q 126.82 66.45 127.45 66.04
  Z
  M 1032.01 42.75
  C 1032.20 30.17 1030.50 13.58 1013.76 12.80
  C 998.39 12.09 972.30 17.24 966.84 34.28
  A 1.63 1.62 -44.7 0 0 966.83 35.26
  C 969.40 43.85 977.15 42.58 982.69 47.78
  C 984.35 49.34 984.74 53.80 984.78 56.01
  Q 985.64 100.63 984.48 145.25
  Q 984.34 150.85 982.65 153.33
  C 980.72 156.16 971.08 160.89 973.87 167.20
  Q 977.57 175.59 987.77 176.87
  Q 1009.46 179.58 1029.03 176.07
  Q 1033.33 175.30 1035.69 173.74
  C 1038.90 171.61 1042.44 167.45 1041.81 163.36
  C 1041.19 159.30 1036.54 155.78 1033.43 153.36
  Q 1033.04 153.06 1032.89 152.58
  Q 1031.30 147.35 1031.27 144.00
  Q 1031.03 108.83 1032.01 42.75
  Z
  M 1111.01 110.09
  Q 1109.73 107.98 1109.76 106.00
  Q 1110.15 76.27 1110.43 46.55
  C 1110.50 38.20 1110.71 33.66 1109.08 27.43
  C 1105.16 12.51 1093.79 11.62 1080.10 13.18
  C 1069.55 14.38 1051.98 19.81 1046.58 30.10
  Q 1043.31 36.34 1048.49 41.07
  C 1051.16 43.51 1056.41 43.57 1059.30 46.41
  Q 1062.45 49.49 1062.58 53.75
  Q 1063.62 90.07 1062.59 145.56
  Q 1062.50 150.67 1060.16 153.67
  C 1056.70 158.12 1049.22 161.10 1052.01 168.30
  C 1054.43 174.54 1063.20 177.06 1069.51 177.39
  Q 1086.32 178.27 1094.25 177.87
  C 1102.59 177.46 1115.63 176.15 1119.02 166.99
  C 1121.69 159.76 1112.69 156.40 1110.98 150.04
  C 1109.68 145.18 1107.62 126.19 1117.74 128.29
  C 1124.97 129.80 1131.30 140.73 1133.38 146.73
  C 1135.60 153.12 1128.08 156.85 1126.72 161.85
  C 1125.07 167.94 1129.35 173.88 1135.03 175.69
  Q 1139.84 177.21 1146.50 177.53
  C 1159.69 178.16 1173.81 178.35 1186.75 175.33
  C 1192.62 173.97 1202.89 167.06 1199.45 159.81
  Q 1198.00 156.77 1194.71 153.79
  Q 1175.26 136.14 1161.49 113.75
  Q 1159.27 110.14 1158.62 106.57
  A 3.23 3.23 0.0 0 1 1159.31 103.93
  C 1165.79 96.08 1176.54 90.24 1185.14 84.80
  C 1188.94 82.40 1197.02 75.64 1195.69 70.56
  C 1193.05 60.44 1179.01 59.99 1170.77 59.55
  Q 1153.61 58.63 1136.88 62.59
  C 1130.97 63.99 1127.55 66.34 1125.07 71.63
  C 1120.51 81.40 1134.15 83.41 1134.76 91.51
  C 1135.39 99.98 1118.97 110.48 1111.83 110.54
  Q 1111.29 110.55 1111.01 110.09
  Z
  M 802.62 142.13
  C 798.19 129.50 798.18 112.75 799.40 99.54
  A 1.07 1.07 0.0 0 1 799.89 98.74
  Q 801.10 97.97 802.64 97.91
  Q 811.19 97.59 819.75 97.58
  C 826.25 97.56 829.78 84.09 830.69 78.99
  C 831.42 74.90 831.14 63.13 824.75 63.11
  Q 812.50 63.08 800.13 62.89
  A 1.06 1.06 0.0 0 1 799.09 61.85
  Q 798.89 47.12 798.71 32.25
  Q 798.68 29.86 797.49 27.80
  A 1.44 1.37 -4.8 0 0 796.73 27.19
  C 787.97 24.33 770.17 35.55 762.81 40.30
  C 755.13 45.25 757.32 54.21 756.46 61.79
  A 2.34 2.33 2.0 0 1 754.23 63.86
  C 750.35 64.01 744.48 63.59 741.79 66.81
  C 738.06 71.27 737.33 78.80 737.26 84.57
  C 737.18 91.07 740.17 97.49 747.49 97.74
  Q 750.57 97.85 752.72 97.77
  A 1.70 1.69 89.0 0 1 754.49 99.49
  Q 754.32 114.67 754.22 129.00
  Q 754.11 144.15 754.44 146.75
  C 755.87 158.16 761.58 170.79 772.87 175.17
  C 792.76 182.90 821.03 172.63 831.14 153.53
  C 833.59 148.88 833.46 144.34 828.91 141.35
  C 821.19 136.28 819.17 142.80 813.11 144.76
  C 810.27 145.68 803.91 145.81 802.62 142.13
  Z
  M 90.93 64.29
  A 1.95 1.94 -61.4 0 1 89.05 64.85
  C 76.13 61.67 63.06 58.79 49.75 60.26
  C 32.24 62.21 17.17 72.46 14.02 90.57
  C 11.57 104.63 17.90 118.51 30.52 125.25
  Q 40.78 130.73 58.69 137.33
  C 63.65 139.15 66.96 141.33 69.84 145.30
  C 71.54 147.64 70.69 149.14 68.90 150.91
  C 65.94 153.82 63.42 155.17 59.13 154.01
  Q 52.84 152.31 48.01 147.75
  C 40.72 140.87 33.86 133.26 24.15 129.13
  C 21.52 128.00 20.38 128.70 18.50 130.48
  C 11.76 136.85 11.51 142.94 12.81 152.15
  C 14.24 162.37 21.14 176.98 33.01 177.93
  A 0.90 0.84 32.9 0 0 33.46 177.85
  L 42.63 173.66
  A 3.01 3.00 -49.6 0 1 44.71 173.49
  C 65.55 179.30 90.09 182.67 108.48 168.01
  Q 123.38 156.13 122.86 138.29
  C 122.21 116.07 105.30 107.14 86.73 101.39
  C 80.83 99.56 67.56 95.29 65.91 91.53
  Q 64.77 88.96 65.44 87.65
  Q 70.20 78.34 79.27 83.71
  Q 86.42 87.94 94.92 95.32
  C 101.70 101.21 112.68 107.41 118.52 97.76
  C 123.75 89.15 118.71 74.53 113.62 66.87
  C 110.77 62.58 105.29 57.40 99.75 59.02
  Q 94.39 60.60 90.93 64.29
  Z
  M 547.06 84.93
  Q 546.61 84.78 546.21 84.06
  Q 545.97 83.61 545.88 82.91
  C 544.78 74.40 543.36 66.49 535.63 62.34
  C 524.45 56.32 506.49 62.68 497.16 69.79
  C 492.10 73.65 480.12 85.44 485.73 91.98
  C 489.29 96.13 496.00 95.06 498.74 100.76
  Q 499.55 102.45 499.66 106.35
  Q 500.21 126.38 499.25 146.39
  C 499.00 151.63 496.49 153.88 492.50 157.38
  C 488.26 161.11 486.42 165.74 490.16 170.63
  C 494.03 175.71 499.49 176.12 506.61 176.80
  Q 526.74 178.72 546.78 175.59
  C 554.22 174.43 561.15 169.41 559.62 160.85
  C 558.56 154.92 550.38 152.99 548.06 147.56
  Q 547.14 145.41 546.94 143.01
  Q 545.61 126.98 547.30 111.01
  C 547.64 107.74 548.94 104.04 550.65 101.55
  Q 552.16 99.34 553.75 101.48
  C 560.39 110.39 565.25 119.89 578.25 119.95
  C 598.53 120.05 605.75 99.45 603.11 82.64
  C 601.00 69.23 592.91 58.85 578.58 58.71
  C 566.96 58.59 557.65 64.53 552.72 75.00
  Q 550.53 79.67 548.58 84.25
  Q 548.13 85.30 547.06 84.93
  Z
  M 190.92 84.52
  C 189.69 72.82 185.10 59.68 170.74 60.06
  C 154.51 60.49 133.06 70.33 129.01 87.92
  Q 128.90 88.40 129.08 88.86
  C 130.37 92.03 131.89 93.43 135.31 94.78
  C 140.37 96.77 144.18 98.13 144.24 104.50
  Q 144.42 124.75 144.33 145.00
  C 144.30 151.41 138.36 156.27 134.62 160.82
  Q 132.25 163.69 132.77 165.50
  C 134.75 172.43 139.21 175.09 146.40 176.30
  Q 163.01 179.10 177.35 177.36
  C 186.30 176.27 193.27 174.75 197.94 168.44
  C 202.07 162.86 197.25 158.49 193.53 154.68
  C 191.47 152.57 190.76 148.03 190.62 144.61
  Q 189.88 125.94 190.60 107.25
  C 190.71 104.53 190.73 100.86 192.31 98.68
  C 194.96 95.01 201.29 94.75 205.25 95.85
  C 212.10 97.75 214.68 105.59 214.82 111.87
  Q 215.39 136.44 214.95 146.75
  Q 214.66 153.39 209.98 158.22
  Q 207.91 160.37 207.35 161.94
  C 199.84 183.15 249.99 177.73 258.28 176.15
  C 267.09 174.48 274.24 167.43 269.13 158.29
  C 266.69 153.93 261.97 150.96 261.78 144.51
  Q 261.51 135.04 261.98 103.00
  C 262.09 94.98 272.54 94.60 277.95 96.55
  C 284.19 98.81 286.04 106.82 286.48 112.75
  Q 287.06 120.68 286.75 135.58
  C 286.52 146.40 287.03 152.33 280.78 159.26
  C 278.96 161.28 277.41 163.93 277.99 166.30
  C 279.60 172.79 285.48 175.45 292.05 176.49
  Q 311.92 179.63 331.65 175.47
  C 335.80 174.60 337.87 172.86 340.71 169.95
  Q 345.47 165.09 341.31 159.94
  Q 337.31 155.00 333.70 149.73
  A 1.64 1.63 27.0 0 1 333.40 148.82
  C 332.94 132.30 332.67 115.79 332.25 99.26
  Q 332.03 90.98 329.96 83.05
  C 325.36 65.45 310.53 56.40 293.09 59.94
  C 279.03 62.80 270.97 72.90 263.49 84.38
  A 1.33 1.33 0.0 0 1 261.15 84.18
  C 254.59 68.98 247.94 59.53 229.76 59.39
  C 211.01 59.24 201.70 70.37 192.82 84.95
  A 1.03 1.03 0.0 0 1 190.92 84.52
  Z
  M 453.86 69.42
  C 436.13 58.08 412.38 57.00 392.49 62.70
  C 370.87 68.88 356.07 84.77 351.14 106.36
  Q 347.30 123.20 352.23 139.25
  C 359.74 163.71 380.83 176.37 405.50 178.14
  C 440.42 180.65 473.67 166.64 478.77 128.22
  C 481.87 104.85 473.80 82.16 453.86 69.42
  Z
  M 631.40 166.41
  C 646.34 177.54 668.07 180.48 686.12 177.39
  C 705.25 174.11 719.09 164.41 727.07 146.33
  Q 732.18 134.76 721.58 130.56
  C 719.40 129.69 717.77 130.11 716.14 131.63
  Q 697.40 149.14 673.69 141.46
  C 666.23 139.05 661.90 134.84 660.60 127.22
  A 1.77 1.76 81.1 0 1 662.08 125.18
  Q 664.01 124.90 666.00 124.87
  Q 683.87 124.67 701.75 124.83
  Q 709.60 124.91 717.27 123.27
  C 726.59 121.27 731.51 112.20 730.72 103.22
  Q 728.72 80.37 710.93 68.25
  C 692.40 55.64 661.78 57.33 642.51 67.44
  Q 618.91 79.82 612.40 106.50
  C 607.20 127.82 613.33 152.96 631.40 166.41
  Z
  M 910.48 160.88
  Q 912.26 168.92 919.09 174.66
  Q 921.71 176.85 924.00 177.28
  C 937.40 179.80 957.44 176.71 965.12 163.79
  Q 967.73 159.40 964.98 155.29
  C 962.44 151.51 953.59 148.55 953.31 144.16
  C 952.35 128.76 953.27 112.47 953.28 103.01
  Q 953.29 93.71 949.82 85.13
  C 943.53 69.55 930.42 63.28 914.50 61.20
  C 893.48 58.46 870.56 61.68 853.00 74.23
  C 846.25 79.06 838.24 90.31 841.36 99.17
  Q 846.06 112.54 860.25 112.50
  C 866.93 112.48 874.86 109.76 878.37 103.60
  C 880.86 99.24 885.14 89.93 889.95 88.34
  Q 902.87 84.07 906.49 96.78
  C 908.61 104.21 899.67 109.67 894.15 111.60
  Q 891.99 112.35 887.27 112.97
  C 875.96 114.47 864.46 117.47 854.83 123.81
  C 843.73 131.11 839.06 145.44 843.04 157.98
  C 848.90 176.48 867.61 181.33 884.76 177.51
  C 895.08 175.20 901.58 167.58 908.36 160.30
  A 1.24 1.24 0.0 0 1 910.48 160.88
  Z"
/>
<path fill="#010101" d="
  M 1379.73 24.69
  Q 1381.47 27.29 1386.32 32.94
  C 1415.35 66.76 1417.00 116.71 1387.93 151.41
  Q 1360.44 184.22 1317.50 185.28
  Q 1299.22 185.73 1240.40 185.04
  Q 1239.88 185.04 1239.59 185.46
  Q 1238.95 186.37 1239.47 188.01
  L 1237.24 185.59
  Q 1236.90 185.22 1236.40 185.14
  Q 1222.69 183.07 1224.42 168.70
  C 1225.51 159.67 1238.98 158.00 1238.51 146.30
  C 1238.39 143.16 1236.44 138.31 1234.97 135.31
  C 1229.83 124.80 1225.18 113.01 1224.56 101.19
  C 1224.09 92.14 1223.89 82.76 1226.11 73.84
  C 1227.31 69.04 1228.53 63.94 1230.40 59.51
  Q 1246.69 20.92 1285.88 6.09
  C 1289.36 4.78 1294.52 4.21 1298.68 2.65
  C 1306.67 -0.33 1316.35 -0.36 1324.71 0.46
  Q 1327.92 0.78 1333.44 2.48
  C 1338.05 3.89 1342.95 4.52 1347.16 6.06
  C 1360.49 10.92 1369.00 17.67 1379.73 24.69
  Z
  M 1305.54 13.44
  Q 1300.01 13.91 1294.36 15.63
  Q 1265.55 24.40 1248.91 49.38
  C 1236.74 67.65 1231.47 91.88 1238.93 113.02
  C 1242.70 124.33 1248.69 134.69 1250.80 146.41
  Q 1249.31 160.69 1238.10 168.32
  Q 1236.74 169.24 1236.24 170.02
  Q 1235.06 171.87 1236.63 172.84
  C 1241.69 173.94 1246.65 173.30 1250.88 173.30
  Q 1281.32 173.30 1311.74 173.30
  Q 1324.77 173.30 1331.66 172.04
  Q 1358.09 167.20 1376.20 147.20
  C 1398.45 122.63 1404.06 85.46 1387.69 55.55
  C 1376.49 35.09 1356.86 19.13 1333.83 14.51
  Q 1320.06 11.76 1305.54 13.44
  Z"
/>
<path fill="#ffffff" d="
  M 1013.76 12.80
  C 1030.50 13.58 1032.20 30.17 1032.01 42.75
  Q 1031.03 108.83 1031.27 144.00
  Q 1031.30 147.35 1032.89 152.58
  Q 1033.04 153.06 1033.43 153.36
  C 1036.54 155.78 1041.19 159.30 1041.81 163.36
  C 1042.44 167.45 1038.90 171.61 1035.69 173.74
  Q 1033.33 175.30 1029.03 176.07
  Q 1009.46 179.58 987.77 176.87
  Q 977.57 175.59 973.87 167.20
  C 971.08 160.89 980.72 156.16 982.65 153.33
  Q 984.34 150.85 984.48 145.25
  Q 985.64 100.63 984.78 56.01
  C 984.74 53.80 984.35 49.34 982.69 47.78
  C 977.15 42.58 969.40 43.85 966.83 35.26
  A 1.63 1.62 -44.7 0 1 966.84 34.28
  C 972.30 17.24 998.39 12.09 1013.76 12.80
  Z"
/>
<path fill="#ffffff" d="
  M 1111.83 110.54
  C 1118.97 110.48 1135.39 99.98 1134.76 91.51
  C 1134.15 83.41 1120.51 81.40 1125.07 71.63
  C 1127.55 66.34 1130.97 63.99 1136.88 62.59
  Q 1153.61 58.63 1170.77 59.55
  C 1179.01 59.99 1193.05 60.44 1195.69 70.56
  C 1197.02 75.64 1188.94 82.40 1185.14 84.80
  C 1176.54 90.24 1165.79 96.08 1159.31 103.93
  A 3.23 3.23 0.0 0 0 1158.62 106.57
  Q 1159.27 110.14 1161.49 113.75
  Q 1175.26 136.14 1194.71 153.79
  Q 1198.00 156.77 1199.45 159.81
  C 1202.89 167.06 1192.62 173.97 1186.75 175.33
  C 1173.81 178.35 1159.69 178.16 1146.50 177.53
  Q 1139.84 177.21 1135.03 175.69
  C 1129.35 173.88 1125.07 167.94 1126.72 161.85
  C 1128.08 156.85 1135.60 153.12 1133.38 146.73
  C 1131.30 140.73 1124.97 129.80 1117.74 128.29
  C 1107.62 126.19 1109.68 145.18 1110.98 150.04
  C 1112.69 156.40 1121.69 159.76 1119.02 166.99
  C 1115.63 176.15 1102.59 177.46 1094.25 177.87
  Q 1086.32 178.27 1069.51 177.39
  C 1063.20 177.06 1054.43 174.54 1052.01 168.30
  C 1049.22 161.10 1056.70 158.12 1060.16 153.67
  Q 1062.50 150.67 1062.59 145.56
  Q 1063.62 90.07 1062.58 53.75
  Q 1062.45 49.49 1059.30 46.41
  C 1056.41 43.57 1051.16 43.51 1048.49 41.07
  Q 1043.31 36.34 1046.58 30.10
  C 1051.98 19.81 1069.55 14.38 1080.10 13.18
  C 1093.79 11.62 1105.16 12.51 1109.08 27.43
  C 1110.71 33.66 1110.50 38.20 1110.43 46.55
  Q 1110.15 76.27 1109.76 106.00
  Q 1109.73 107.98 1111.01 110.09
  Q 1111.29 110.55 1111.83 110.54
  Z"
/>
<path fill="#948aff" d="
  M 1236.63 172.84
  L 1241.22 171.87
  Q 1241.69 171.77 1242.01 171.42
  Q 1242.66 170.70 1244.34 169.30
  Q 1254.56 160.80 1252.02 147.03
  Q 1251.93 146.53 1251.42 146.48
  L 1250.80 146.41
  C 1248.69 134.69 1242.70 124.33 1238.93 113.02
  Q 1239.77 114.40 1240.66 114.32
  A 0.47 0.46 -13.9 0 0 1241.05 113.68
  Q 1239.11 108.96 1238.58 104.00
  C 1238.05 99.02 1239.36 92.18 1239.55 86.22
  Q 1239.65 83.11 1240.55 80.41
  C 1242.12 75.62 1243.67 70.47 1245.50 66.37
  C 1256.05 42.67 1277.75 24.40 1301.79 15.46
  Q 1302.64 15.15 1305.02 14.80
  A 0.74 0.74 0.0 0 0 1305.63 14.21
  Q 1305.70 13.84 1305.54 13.44
  Q 1320.06 11.76 1333.83 14.51
  C 1356.86 19.13 1376.49 35.09 1387.69 55.55
  C 1404.06 85.46 1398.45 122.63 1376.20 147.20
  Q 1358.09 167.20 1331.66 172.04
  Q 1324.77 173.30 1311.74 173.30
  Q 1281.32 173.30 1250.88 173.30
  C 1246.65 173.30 1241.69 173.94 1236.63 172.84
  Z"
/>
<path fill="#ffffff" d="
  M 1305.54 13.44
  Q 1305.70 13.84 1305.63 14.21
  A 0.74 0.74 0.0 0 1 1305.02 14.80
  Q 1302.64 15.15 1301.79 15.46
  C 1277.75 24.40 1256.05 42.67 1245.50 66.37
  C 1243.67 70.47 1242.12 75.62 1240.55 80.41
  Q 1239.65 83.11 1239.55 86.22
  C 1239.36 92.18 1238.05 99.02 1238.58 104.00
  Q 1239.11 108.96 1241.05 113.68
  A 0.47 0.46 -13.9 0 1 1240.66 114.32
  Q 1239.77 114.40 1238.93 113.02
  C 1231.47 91.88 1236.74 67.65 1248.91 49.38
  Q 1265.55 24.40 1294.36 15.63
  Q 1300.01 13.91 1305.54 13.44
  Z"
/>
<path fill="#948aff" d="
  M 1379.73 24.69
  C 1384.74 28.48 1390.38 31.94 1394.57 36.01
  C 1406.42 47.51 1416.62 63.23 1420.27 79.66
  C 1421.31 84.32 1423.29 88.95 1424.00 93.87
  L 1424.00 113.77
  C 1423.23 118.38 1421.16 122.53 1420.13 126.90
  C 1413.20 156.45 1386.48 184.28 1356.76 191.64
  Q 1352.08 192.80 1348.89 193.89
  Q 1343.51 195.73 1340.88 195.74
  Q 1296.06 195.83 1251.25 195.80
  C 1246.92 195.80 1242.91 191.58 1239.47 188.01
  Q 1238.95 186.37 1239.59 185.46
  Q 1239.88 185.04 1240.40 185.04
  Q 1299.22 185.73 1317.50 185.28
  Q 1360.44 184.22 1387.93 151.41
  C 1417.00 116.71 1415.35 66.76 1386.32 32.94
  Q 1381.47 27.29 1379.73 24.69
  Z"
/>
<path fill="#ffffff" d="
  M 802.62 142.13
  C 803.91 145.81 810.27 145.68 813.11 144.76
  C 819.17 142.80 821.19 136.28 828.91 141.35
  C 833.46 144.34 833.59 148.88 831.14 153.53
  C 821.03 172.63 792.76 182.90 772.87 175.17
  C 761.58 170.79 755.87 158.16 754.44 146.75
  Q 754.11 144.15 754.22 129.00
  Q 754.32 114.67 754.49 99.49
  A 1.70 1.69 89.0 0 0 752.72 97.77
  Q 750.57 97.85 747.49 97.74
  C 740.17 97.49 737.18 91.07 737.26 84.57
  C 737.33 78.80 738.06 71.27 741.79 66.81
  C 744.48 63.59 750.35 64.01 754.23 63.86
  A 2.34 2.33 2.0 0 0 756.46 61.79
  C 757.32 54.21 755.13 45.25 762.81 40.30
  C 770.17 35.55 787.97 24.33 796.73 27.19
  A 1.44 1.37 -4.8 0 1 797.49 27.80
  Q 798.68 29.86 798.71 32.25
  Q 798.89 47.12 799.09 61.85
  A 1.06 1.06 0.0 0 0 800.13 62.89
  Q 812.50 63.08 824.75 63.11
  C 831.14 63.13 831.42 74.90 830.69 78.99
  C 829.78 84.09 826.25 97.56 819.75 97.58
  Q 811.19 97.59 802.64 97.91
  Q 801.10 97.97 799.89 98.74
  A 1.07 1.07 0.0 0 0 799.40 99.54
  C 798.18 112.75 798.19 129.50 802.62 142.13
  Z"
/>
<path fill="#ffffff" d="
  M 90.93 64.29
  Q 94.39 60.60 99.75 59.02
  C 105.29 57.40 110.77 62.58 113.62 66.87
  C 118.71 74.53 123.75 89.15 118.52 97.76
  C 112.68 107.41 101.70 101.21 94.92 95.32
  Q 86.42 87.94 79.27 83.71
  Q 70.20 78.34 65.44 87.65
  Q 64.77 88.96 65.91 91.53
  C 67.56 95.29 80.83 99.56 86.73 101.39
  C 105.30 107.14 122.21 116.07 122.86 138.29
  Q 123.38 156.13 108.48 168.01
  C 90.09 182.67 65.55 179.30 44.71 173.49
  A 3.01 3.00 -49.6 0 0 42.63 173.66
  L 33.46 177.85
  A 0.90 0.84 32.9 0 1 33.01 177.93
  C 21.14 176.98 14.24 162.37 12.81 152.15
  C 11.51 142.94 11.76 136.85 18.50 130.48
  C 20.38 128.70 21.52 128.00 24.15 129.13
  C 33.86 133.26 40.72 140.87 48.01 147.75
  Q 52.84 152.31 59.13 154.01
  C 63.42 155.17 65.94 153.82 68.90 150.91
  C 70.69 149.14 71.54 147.64 69.84 145.30
  C 66.96 141.33 63.65 139.15 58.69 137.33
  Q 40.78 130.73 30.52 125.25
  C 17.90 118.51 11.57 104.63 14.02 90.57
  C 17.17 72.46 32.24 62.21 49.75 60.26
  C 63.06 58.79 76.13 61.67 89.05 64.85
  A 1.95 1.94 -61.4 0 0 90.93 64.29
  Z"
/>
<path fill="#ffffff" d="
  M 547.06 84.93
  Q 548.13 85.30 548.58 84.25
  Q 550.53 79.67 552.72 75.00
  C 557.65 64.53 566.96 58.59 578.58 58.71
  C 592.91 58.85 601.00 69.23 603.11 82.64
  C 605.75 99.45 598.53 120.05 578.25 119.95
  C 565.25 119.89 560.39 110.39 553.75 101.48
  Q 552.16 99.34 550.65 101.55
  C 548.94 104.04 547.64 107.74 547.30 111.01
  Q 545.61 126.98 546.94 143.01
  Q 547.14 145.41 548.06 147.56
  C 550.38 152.99 558.56 154.92 559.62 160.85
  C 561.15 169.41 554.22 174.43 546.78 175.59
  Q 526.74 178.72 506.61 176.80
  C 499.49 176.12 494.03 175.71 490.16 170.63
  C 486.42 165.74 488.26 161.11 492.50 157.38
  C 496.49 153.88 499.00 151.63 499.25 146.39
  Q 500.21 126.38 499.66 106.35
  Q 499.55 102.45 498.74 100.76
  C 496.00 95.06 489.29 96.13 485.73 91.98
  C 480.12 85.44 492.10 73.65 497.16 69.79
  C 506.49 62.68 524.45 56.32 535.63 62.34
  C 543.36 66.49 544.78 74.40 545.88 82.91
  Q 545.97 83.61 546.21 84.06
  Q 546.61 84.78 547.06 84.93
  Z"
/>
<path fill="#ffffff" d="
  M 190.92 84.52
  A 1.03 1.03 0.0 0 0 192.82 84.95
  C 201.70 70.37 211.01 59.24 229.76 59.39
  C 247.94 59.53 254.59 68.98 261.15 84.18
  A 1.33 1.33 0.0 0 0 263.49 84.38
  C 270.97 72.90 279.03 62.80 293.09 59.94
  C 310.53 56.40 325.36 65.45 329.96 83.05
  Q 332.03 90.98 332.25 99.26
  C 332.67 115.79 332.94 132.30 333.40 148.82
  A 1.64 1.63 27.0 0 0 333.70 149.73
  Q 337.31 155.00 341.31 159.94
  Q 345.47 165.09 340.71 169.95
  C 337.87 172.86 335.80 174.60 331.65 175.47
  Q 311.92 179.63 292.05 176.49
  C 285.48 175.45 279.60 172.79 277.99 166.30
  C 277.41 163.93 278.96 161.28 280.78 159.26
  C 287.03 152.33 286.52 146.40 286.75 135.58
  Q 287.06 120.68 286.48 112.75
  C 286.04 106.82 284.19 98.81 277.95 96.55
  C 272.54 94.60 262.09 94.98 261.98 103.00
  Q 261.51 135.04 261.78 144.51
  C 261.97 150.96 266.69 153.93 269.13 158.29
  C 274.24 167.43 267.09 174.48 258.28 176.15
  C 249.99 177.73 199.84 183.15 207.35 161.94
  Q 207.91 160.37 209.98 158.22
  Q 214.66 153.39 214.95 146.75
  Q 215.39 136.44 214.82 111.87
  C 214.68 105.59 212.10 97.75 205.25 95.85
  C 201.29 94.75 194.96 95.01 192.31 98.68
  C 190.73 100.86 190.71 104.53 190.60 107.25
  Q 189.88 125.94 190.62 144.61
  C 190.76 148.03 191.47 152.57 193.53 154.68
  C 197.25 158.49 202.07 162.86 197.94 168.44
  C 193.27 174.75 186.30 176.27 177.35 177.36
  Q 163.01 179.10 146.40 176.30
  C 139.21 175.09 134.75 172.43 132.77 165.50
  Q 132.25 163.69 134.62 160.82
  C 138.36 156.27 144.30 151.41 144.33 145.00
  Q 144.42 124.75 144.24 104.50
  C 144.18 98.13 140.37 96.77 135.31 94.78
  C 131.89 93.43 130.37 92.03 129.08 88.86
  Q 128.90 88.40 129.01 87.92
  C 133.06 70.33 154.51 60.49 170.74 60.06
  C 185.10 59.68 189.69 72.82 190.92 84.52
  Z"
/>
<path fill="#ffffff" d="
  M 453.86 69.42
  C 473.80 82.16 481.87 104.85 478.77 128.22
  C 473.67 166.64 440.42 180.65 405.50 178.14
  C 380.83 176.37 359.74 163.71 352.23 139.25
  Q 347.30 123.20 351.14 106.36
  C 356.07 84.77 370.87 68.88 392.49 62.70
  C 412.38 57.00 436.13 58.08 453.86 69.42
  Z
  M 428.0828 143.5985
  A 27.50 16.89 61.9 0 0 430.0291 111.3846
  A 27.50 16.89 61.9 0 0 402.1772 95.0815
  A 27.50 16.89 61.9 0 0 400.2309 127.2954
  A 27.50 16.89 61.9 0 0 428.0828 143.5985
  Z"
/>
<path fill="#ffffff" d="
  M 631.40 166.41
  C 613.33 152.96 607.20 127.82 612.40 106.50
  Q 618.91 79.82 642.51 67.44
  C 661.78 57.33 692.40 55.64 710.93 68.25
  Q 728.72 80.37 730.72 103.22
  C 731.51 112.20 726.59 121.27 717.27 123.27
  Q 709.60 124.91 701.75 124.83
  Q 683.87 124.67 666.00 124.87
  Q 664.01 124.90 662.08 125.18
  A 1.77 1.76 81.1 0 0 660.60 127.22
  C 661.90 134.84 666.23 139.05 673.69 141.46
  Q 697.40 149.14 716.14 131.63
  C 717.77 130.11 719.40 129.69 721.58 130.56
  Q 732.18 134.76 727.07 146.33
  C 719.09 164.41 705.25 174.11 686.12 177.39
  C 668.07 180.48 646.34 177.54 631.40 166.41
  Z
  M 661.07 108.82
  L 679.92 108.17
  A 4.56 4.56 0.0 0 0 684.32 103.45
  L 684.25 101.51
  A 12.54 12.10 -2.0 0 0 671.29 89.86
  L 668.40 89.96
  A 12.54 12.10 -2.0 0 0 656.29 102.49
  L 656.35 104.43
  A 4.56 4.56 0.0 0 0 661.07 108.82
  Z"
/>
<path fill="#ffffff" d="
  M 910.48 160.88
  A 1.24 1.24 0.0 0 0 908.36 160.30
  C 901.58 167.58 895.08 175.20 884.76 177.51
  C 867.61 181.33 848.90 176.48 843.04 157.98
  C 839.06 145.44 843.73 131.11 854.83 123.81
  C 864.46 117.47 875.96 114.47 887.27 112.97
  Q 891.99 112.35 894.15 111.60
  C 899.67 109.67 908.61 104.21 906.49 96.78
  Q 902.87 84.07 889.95 88.34
  C 885.14 89.93 880.86 99.24 878.37 103.60
  C 874.86 109.76 866.93 112.48 860.25 112.50
  Q 846.06 112.54 841.36 99.17
  C 838.24 90.31 846.25 79.06 853.00 74.23
  C 870.56 61.68 893.48 58.46 914.50 61.20
  C 930.42 63.28 943.53 69.55 949.82 85.13
  Q 953.29 93.71 953.28 103.01
  C 953.27 112.47 952.35 128.76 953.31 144.16
  C 953.59 148.55 962.44 151.51 964.98 155.29
  Q 967.73 159.40 965.12 163.79
  C 957.44 176.71 937.40 179.80 924.00 177.28
  Q 921.71 176.85 919.09 174.66
  Q 912.26 168.92 910.48 160.88
  Z
  M 903.03 126.02
  C 899.33 127.76 894.28 129.40 891.71 131.93
  C 887.66 135.90 888.60 142.54 892.37 146.40
  C 896.66 150.78 903.58 149.36 906.48 144.28
  Q 911.41 135.65 906.50 125.92
  Q 904.84 124.74 903.03 126.02
  Z"
/>
<path fill="#010101" d="
  M 661.07 108.82
  A 4.56 4.56 0.0 0 1 656.35 104.43
  L 656.29 102.49
  A 12.54 12.10 -2.0 0 1 668.40 89.96
  L 671.29 89.86
  A 12.54 12.10 -2.0 0 1 684.25 101.51
  L 684.32 103.45
  A 4.56 4.56 0.0 0 1 679.92 108.17
  L 661.07 108.82
  Z"
/>
<ellipse fill="#010101" cx="0.00" cy="0.00" transform="translate(415.13,119.34) rotate(61.9)" rx="27.50" ry="16.89"/>
<path fill="#948aff" d="
  M 906.50 125.92
  L 903.03 126.02
  Q 904.84 124.74 906.50 125.92
  Z"
/>
<path fill="#010101" d="
  M 903.03 126.02
  L 906.50 125.92
  Q 911.41 135.65 906.48 144.28
  C 903.58 149.36 896.66 150.78 892.37 146.40
  C 888.60 142.54 887.66 135.90 891.71 131.93
  C 894.28 129.40 899.33 127.76 903.03 126.02
  Z"
/>
<path fill="#ffffff" d="
  M 1250.80 146.41
  L 1251.42 146.48
  Q 1251.93 146.53 1252.02 147.03
  Q 1254.56 160.80 1244.34 169.30
  Q 1242.66 170.70 1242.01 171.42
  Q 1241.69 171.77 1241.22 171.87
  L 1236.63 172.84
  Q 1235.06 171.87 1236.24 170.02
  Q 1236.74 169.24 1238.10 168.32
  Q 1249.31 160.69 1250.80 146.41
  Z"
/>
</svg>
